PathFileType	4	(X/Y/Z)	C:/Users/beibeiliu/ov580/test_trc/User1\sequence.4_training_dense_right.trc
DataRate	CameraRate	NumFrames	NumMarkers	Units	OrigDataRate	OrigDataStartFrame	OrigNumFrames
120	120	14	19	mm	120	1	251
Frame#	Time	ThumbCMC			ThumbMCP			ThumbIP			ThumbTip			IndexMCP			IndexPIP			IndexTip			MiddleMCP			MiddlePIP			MiddleTip			RingMCP			RingPIP			RingTip			PinkyMCP			PinkyPIP			PinkyTip			BackHand1			BackHand2			BackHand3	
		X0	Y0	Z0	X1	Y1	Z1	X2	Y2	Z2	X3	Y3	Z3	X4	Y4	Z4	X5	Y5	Z5	X6	Y6	Z6	X7	Y7	Z7	X8	Y8	Z8	X9	Y9	Z9	X10	Y10	Z10	X11	Y11	Z11	X12	Y12	Z12	X13	Y13	Z13	X14	Y14	Z14	X15	Y15	Z15	X16	Y16	Z16	X17	Y17	Z17	X18	Y18	Z18	
0	0	119.99	63.4626	31.1092	91.2187	45.5861	27.2376	71.5649	30.7104	14.3457	54.4674	19.4789	8.7183	128.165	45.7965	-51.5301	124.615	39.2615	-78.7435	121.603	38.0469	-98.9757	160.945	47.5629	-60.0735	157.556	43.5364	-86.5256	163.275	40.983	-115.533	184.115	39.3762	-52.4475	189.151	35.5974	-78.2818	197.076	32.5397	-102.088	206.618	28.7007	-29.7841	219.417	23.5995	-42.8698	232.686	26.5637	-57.4441	181.407	61.6461	-5.17404	184.253	80.6216	24.5773	149.109	76.321	9.45269	
1	0.00833333	117.288	59.5187	27.1672	96.1177	42.6859	27.0044	73.1916	27.6679	12.652	53.912	18.5136	12.4401	128.651	42.9495	-51.3005	123.202	38.8795	-78.1388	125.744	35.5147	-103.168	157.548	45.5828	-59.361	157.388	41.1775	-90.7026	163.131	39.6562	-117.509	182.924	37.438	-55.2267	193.995	33.0048	-74.718	196.881	29.294	-101.971	206.779	26.9474	-29.3685	221.51	21.3268	-43.4673	233.057	22.8762	-62.4581	181.27	59.9079	-5.11672	184.287	78.2591	24.2922	148.196	74.2379	6.03841	
2	0.0166667	117.808	60.2612	32.2132	96.222	39.7394	25.0355	72.9818	27.0381	13.9915	56.3725	16.3036	9.41487	129.579	41.4213	-51.5214	123.338	37.467	-74.1941	127.023	33.8192	-100.025	158.176	43.5184	-64.3499	157.439	39.7353	-90.1079	163.862	37.7252	-118.927	186.403	35.613	-53.4537	190.774	30.5809	-75.2484	198.356	25.2567	-100.42	208.58	26.6645	-30.9629	221.019	19.701	-41.1198	232.201	21.8082	-58.9209	182.561	58.78	-6.29952	187.41	76.9815	21.2451	150.631	73.6486	7.22674	
3	0.025	116.681	58.4866	29.6129	95.201	41.1554	27.7413	73.3987	26.0284	12.242	54.3497	15.331	9.63083	128.202	40.9546	-49.548	123.718	35.4586	-78.4509	128.512	32.1359	-101.767	162.814	42.719	-62.0068	162.221	38.059	-90.8543	166.903	35.0351	-116.889	185.995	35.0233	-55.3651	193.908	29.0212	-78.8343	198.379	22.3804	-100.971	208.658	26.12	-29.6701	219.491	19.2008	-39.9815	236.295	20.4347	-60.8457	180.32	59.8841	-6.88525	186.38	75.5821	24.6767	147.042	70.7634	4.51772	
4	0.0333333	115.568	58.0831	28.0759	95.798	40.0075	26.2372	73.8233	25.9373	13.2106	55.2422	13.2351	8.21427	129.8	39.187	-53.5882	124.069	34.9268	-75.2149	128.92	30.0784	-100.777	158.393	42.3726	-58.8906	160.272	36.2201	-90.7056	163.761	34.3289	-115.235	185.195	33.6407	-50.3246	191.696	26.7583	-79.5833	199.441	21.4894	-102.087	209.259	25.2815	-26.3573	222.732	17.9352	-43.494	236.809	17.9971	-60.7264	181.394	59.2613	-3.58311	189.388	76.4082	23.6691	152.872	70.9229	7.67166	
5	0.0416667	116.631	56.2697	27.4762	97.8773	38.2119	25.3908	77.9336	25.4728	16.328	58.4241	13.3689	10.3753	127.436	37.7892	-51.5407	128.348	32.4348	-77.6505	122.98	30.397	-102.694	161.423	41.0618	-58.9252	162.988	36.0921	-86.8404	163.45	33.0636	-113.374	185.338	32.0633	-53.7551	194.742	26.5818	-75.5772	197.168	19.3615	-98.1308	212.549	23.0163	-28.3596	219.938	17.5527	-40.8862	239.333	18.9391	-59.8116	186.085	56.3694	-5.67977	187.009	73.5967	21.8358	152.842	68.6387	4.23989	
6	0.05	119.505	55.5747	28.3209	95.5082	39.9768	27.3923	72.9876	26.1707	15.634	55.6894	14.5049	12.9216	129.225	37.1316	-51.7399	123.622	32.2411	-77.2863	128.898	28.4184	-101.656	159.145	40.9412	-60.0154	160.954	35.0398	-86.807	164.592	31.828	-115.155	189.784	31.6587	-52.7636	196.049	25.3667	-75.1287	200.837	19.0182	-97.0187	209.469	23.429	-26.8783	224.984	15.3917	-39.7212	240.016	17.2683	-59.2274	183.114	58.4845	-3.26911	185.236	74.1527	24.3477	151.057	68.2677	5.42374	
7	0.0583333	120.125	56.4203	32.6302	97.1382	38.4101	27.1741	75.8982	25.3468	16.1788	56.0657	14.5063	11.2751	128.247	36.9778	-51.6772	127.593	29.831	-78.916	127.292	27.5526	-103.739	162.255	38.6458	-61.2522	162.179	33.5743	-88.0289	168.638	31.1981	-118.735	191.515	29.7182	-52.6188	198.448	24.2113	-75.8008	199.268	18.8996	-97.2487	210.443	23.3828	-25.3901	221.679	15.8355	-38.3684	239.79	18.1624	-56.2275	183.378	56.8729	-7.4096	187.123	74.7287	25.8717	149.995	69.4589	8.2051	
8	0.0666667	122.683	54.1627	27.3774	98.1216	38.472	27.0914	79.4556	25.5532	16.102	58.6538	15.6948	12.9002	131.301	35.7429	-53.1757	127.538	30.8959	-77.4709	130.092	26.5248	-99.4007	164.287	39.2167	-60.0374	164.755	33.0263	-90.3117	167.133	29.9828	-113.007	189.048	31.8236	-49.4031	196.29	24.4903	-73.4249	203.636	18.5986	-99.5472	213.399	22.5923	-25.952	223.507	14.5321	-40.7246	240.348	15.7301	-53.0654	188.867	56.7575	-5.86794	191.32	72.5583	23.0917	154.812	68.6663	8.89177	
9	0.075	122.178	57.1398	31.5432	98.6074	37.4545	27.0378	79.1117	25.8153	16.6665	58.3724	15.9678	11.6331	134.678	35.6772	-53.2705	127.556	30.0224	-73.6918	130.021	25.2536	-102.059	162.353	39.1514	-62.6391	165.399	32.7952	-89.8022	167.32	30.5687	-113.484	191.464	31.0651	-49.0777	196.775	23.9036	-73.2744	203.38	17.6141	-97.6891	216.552	21.6427	-24.5611	225.693	14.5532	-39.1217	238.961	16.5229	-56.9254	185.004	55.1012	-2.35242	192.2	70.7867	22.6216	157.989	69.9729	8.82592	
10	0.0833333	125.26	54.8574	28.2191	97.318	37.3338	25.5661	76.8785	24.4196	17.1044	59.2747	13.1503	11.007	134.129	36.3674	-49.3283	128.476	29.5753	-77.7267	134.515	25.6979	-99.7636	166.066	37.591	-61.402	169.012	33.1204	-85.7805	170.896	29.4367	-113.758	194.838	29.4395	-52.1411	199.73	23.784	-73.7881	205.308	17.1827	-97.245	218.162	20.1414	-24.0852	226.606	13.6814	-39.0513	242.971	15.6495	-58.6565	186.648	55.5772	-0.988688	192.269	73.4677	25.6686	157.948	67.2496	10.0926	
11	0.0916667	126.014	54.977	32.7288	104.413	35.5278	25.7592	78.241	21.8827	13.9386	58.1531	11.9118	10.5228	133.632	35.0084	-51.4395	132.374	29.5555	-77.4731	133.21	25.057	-102.721	164.654	37.6202	-58.3679	168.599	32.7101	-87.6272	168.789	29.9848	-114.496	195.298	29.5035	-51.7796	202.005	22.8176	-73.5421	205.985	16.0257	-99.7044	217.023	19.092	-29.5972	230.93	12.9151	-40.9167	245.224	14.1298	-56.2632	190.109	52.9995	-6.00458	192.922	71.0833	24.4744	155.065	65.1238	6.38762	
12	0.1	123.98	55.094	31.8594	103.54	35.5281	25.8102	82.2752	23.3442	17.3958	62.1396	13.1031	12.1904	133.325	35.7206	-53.7368	133.253	29.186	-77.2224	131.065	24.8305	-98.1958	165.122	37.3925	-63.3573	171.042	31.0789	-89.7631	172.597	28.697	-114.656	194.734	28.7355	-53.0418	204.455	22.0647	-76.394	205.077	17.1046	-99.4892	219.846	19.5281	-27.7415	229.154	12.8722	-40.507	243.568	13.6247	-57.8651	188.986	55.3757	-5.46018	193.117	69.8795	24.1033	156.4	68.4577	8.87683	
13	0.108333	127.849	53.769	28.8706	102.662	35.4837	25.9905	83.1631	23.3223	14.8186	63.4464	13.7554	13.2913	137.863	35.1387	-50.9077	134.961	29.5028	-76.7328	132.685	25.6192	-103.424	170.602	38.2453	-58.442	171.099	32.6247	-85.4397	174.245	29.8334	-116.7	198.182	28.2599	-52.9073	198.791	22.5879	-74.6064	207.127	17.3611	-94.8066	219.873	20.889	-23.5506	231.915	12.098	-39.5643	241.309	14.0258	-55.7493	189.254	56.0365	-1.81184	193.792	70.5981	23.2143	156.265	69.2499	9.20516	
